{
    "asset" : {
        "generator" : "Khronos glTF Blender I/O v1.5.17",
        "version" : "2.0"
    },
    "scene" : 0,
    "scenes" : [
        {
            "name" : "Scene",
            "nodes" : [
                0
            ]
        }
    ],
    "nodes" : [
        {
            "mesh" : 0,
            "name" : "Cube.002"
        }
    ],
    "meshes" : [
        {
            "name" : "Cube",
            "primitives" : [
                {
                    "attributes" : {
                        "POSITION" : 0,
                        "NORMAL" : 1,
                        "TEXCOORD_0" : 2
                    },
                    "indices" : 3
                }
            ]
        }
    ],
    "accessors" : [
        {
            "bufferView" : 0,
            "componentType" : 5126,
            "count" : 788,
            "max" : [
                0.04384969547390938,
                0.06950557231903076,
                0.0438496358692646
            ],
            "min" : [
                -0.04384957253932953,
                -0.06950552761554718,
                -0.043849606066942215
            ],
            "type" : "VEC3"
        },
        {
            "bufferView" : 1,
            "componentType" : 5126,
            "count" : 788,
            "type" : "VEC3"
        },
        {
            "bufferView" : 2,
            "componentType" : 5126,
            "count" : 788,
            "type" : "VEC2"
        },
        {
            "bufferView" : 3,
            "componentType" : 5123,
            "count" : 3300,
            "type" : "SCALAR"
        }
    ],
    "bufferViews" : [
        {
            "buffer" : 0,
            "byteLength" : 9456,
            "byteOffset" : 0
        },
        {
            "buffer" : 0,
            "byteLength" : 9456,
            "byteOffset" : 9456
        },
        {
            "buffer" : 0,
            "byteLength" : 6304,
            "byteOffset" : 18912
        },
        {
            "buffer" : 0,
            "byteLength" : 6600,
            "byteOffset" : 25216
        }
    ],
    "buffers" : [
        {
            "byteLength" : 31816,
            "uri" : "data:application/octet-stream;base64,"
        }
    ]
}
