{
    "asset" : {
        "generator" : "Khronos glTF Blender I/O v1.5.17",
        "version" : "2.0"
    },
    "scene" : 0,
    "scenes" : [
        {
            "name" : "Scene",
            "nodes" : [
                0
            ]
        }
    ],
    "nodes" : [
        {
            "mesh" : 0,
            "name" : "Object.001",
            "rotation" : [
                0.32345619797706604,
                0,
                0,
                0.946243166923523
            ],
            "scale" : [
                1.6795793771743774,
                1,
                1.6795793771743774
            ],
            "translation" : [
                0,
                0.10642796754837036,
                0.025925839319825172
            ]
        }
    ],
    "meshes" : [
        {
            "name" : "Cylinder.002",
            "primitives" : [
                {
                    "attributes" : {
                        "POSITION" : 0,
                        "NORMAL" : 1,
                        "TEXCOORD_0" : 2
                    },
                    "indices" : 3
                }
            ]
        }
    ],
    "accessors" : [
        {
            "bufferView" : 0,
            "componentType" : 5126,
            "count" : 666,
            "max" : [
                0.028280889615416527,
                0.008391842246055603,
                0.093045175075531
            ],
            "min" : [
                -0.028280889615416527,
                -0.22478580474853516,
                -0.026633895933628082
            ],
            "type" : "VEC3"
        },
        {
            "bufferView" : 1,
            "componentType" : 5126,
            "count" : 666,
            "type" : "VEC3"
        },
        {
            "bufferView" : 2,
            "componentType" : 5126,
            "count" : 666,
            "type" : "VEC2"
        },
        {
            "bufferView" : 3,
            "componentType" : 5123,
            "count" : 1086,
            "type" : "SCALAR"
        }
    ],
    "bufferViews" : [
        {
            "buffer" : 0,
            "byteLength" : 7992,
            "byteOffset" : 0
        },
        {
            "buffer" : 0,
            "byteLength" : 7992,
            "byteOffset" : 7992
        },
        {
            "buffer" : 0,
            "byteLength" : 5328,
            "byteOffset" : 15984
        },
        {
            "buffer" : 0,
            "byteLength" : 2172,
            "byteOffset" : 21312
        }
    ],
    "buffers" : [
        {
            "byteLength" : 23484,
            "uri" : "data:application/octet-stream;base64,"
        }
    ]
}
