{
    "asset" : {
        "generator" : "Khronos glTF Blender I/O v1.6.16",
        "version" : "2.0"
    },
    "scene" : 0,
    "scenes" : [
        {
            "name" : "Scene",
            "nodes" : [
                0,
                1,
                2,
                3,
                4
            ]
        }
    ],
    "nodes" : [
        {
            "mesh" : 0,
            "name" : "slide",
            "scale" : [
                1.8570730686187744,
                0.2659495174884796,
                0.3391846716403961
            ],
            "translation" : [
                0,
                1.0394718647003174,
                0
            ]
        },
        {
            "mesh" : 1,
            "name" : "grip",
            "rotation" : [
                0.7071068286895752,
                0,
                0,
                0.7071068286895752
            ],
            "scale" : [
                1,
                0.619827389717102,
                1
            ],
            "translation" : [
                -0.5469322204589844,
                0.17608852684497833,
                0
            ]
        },
        {
            "mesh" : 2,
            "name" : "trigger guard",
            "rotation" : [
                0.7071068286895752,
                0,
                0,
                0.7071068286895752
            ],
            "scale" : [
                1,
                0.3546867072582245,
                1
            ],
            "translation" : [
                0,
                0.0410039983689785,
                0
            ]
        },
        {
            "mesh" : 3,
            "name" : "barrel",
            "rotation" : [
                0,
                0,
                -0.6993551850318909,
                0.7147743105888367
            ],
            "scale" : [
                1,
                1.3039469718933105,
                1
            ],
            "translation" : [
                1.165798544883728,
                1.0384985208511353,
                0
            ]
        },
        {
            "mesh" : 4,
            "name" : "magazine",
            "rotation" : [
                0.6941152811050415,
                -0.1349223405122757,
                -0.1349223256111145,
                0.6941152215003967
            ],
            "scale" : [
                1,
                0.619827389717102,
                1
            ],
            "translation" : [
                -1.258179783821106,
                -0.5169487595558167,
                3.7055660868645646e-06
            ]
        }
    ],
    "materials" : [
        {
            "doubleSided" : true,
            "name" : "Material",
            "pbrMetallicRoughness" : {
                "baseColorTexture" : {
                    "index" : 0
                },
                "metallicFactor" : 0,
                "roughnessFactor" : 0.5
            }
        }
    ],
    "meshes" : [
        {
            "name" : "Cube.001",
            "primitives" : [
                {
                    "attributes" : {
                        "POSITION" : 0,
                        "NORMAL" : 1,
                        "TEXCOORD_0" : 2
                    },
                    "indices" : 3,
                    "material" : 0
                }
            ]
        },
        {
            "name" : "Plane",
            "primitives" : [
                {
                    "attributes" : {
                        "POSITION" : 4,
                        "NORMAL" : 5,
                        "TEXCOORD_0" : 6
                    },
                    "indices" : 7,
                    "material" : 0
                }
            ]
        },
        {
            "name" : "Plane.001",
            "primitives" : [
                {
                    "attributes" : {
                        "POSITION" : 8,
                        "NORMAL" : 9,
                        "TEXCOORD_0" : 10
                    },
                    "indices" : 11,
                    "material" : 0
                }
            ]
        },
        {
            "name" : "Cylinder",
            "primitives" : [
                {
                    "attributes" : {
                        "POSITION" : 12,
                        "NORMAL" : 13,
                        "TEXCOORD_0" : 14
                    },
                    "indices" : 15,
                    "material" : 0
                }
            ]
        },
        {
            "name" : "Plane.002",
            "primitives" : [
                {
                    "attributes" : {
                        "POSITION" : 16,
                        "NORMAL" : 17,
                        "TEXCOORD_0" : 18
                    },
                    "indices" : 19,
                    "material" : 0
                }
            ]
        }
    ],
    "textures" : [
        {
            "sampler" : 0,
            "source" : 0
        }
    ],
    "images" : [
        {
            "bufferView" : 4,
            "mimeType" : "image/png",
            "name" : "glock"
        }
    ],
    "accessors" : [
        {
            "bufferView" : 0,
            "componentType" : 5126,
            "count" : 190,
            "max" : [
                1,
                1.2611050605773926,
                1
            ],
            "min" : [
                -1,
                -1,
                -1
            ],
            "type" : "VEC3"
        },
        {
            "bufferView" : 1,
            "componentType" : 5126,
            "count" : 190,
            "type" : "VEC3"
        },
        {
            "bufferView" : 2,
            "componentType" : 5126,
            "count" : 190,
            "type" : "VEC2"
        },
        {
            "bufferView" : 3,
            "componentType" : 5123,
            "count" : 300,
            "type" : "SCALAR"
        },
        {
            "bufferView" : 5,
            "componentType" : 5126,
            "count" : 190,
            "max" : [
                2.4600741863250732,
                0.49999839067459106,
                1.5677363872528076
            ],
            "min" : [
                -1.6354010105133057,
                -0.5000016093254089,
                -0.6103067398071289
            ],
            "type" : "VEC3"
        },
        {
            "bufferView" : 6,
            "componentType" : 5126,
            "count" : 190,
            "type" : "VEC3"
        },
        {
            "bufferView" : 7,
            "componentType" : 5126,
            "count" : 190,
            "type" : "VEC2"
        },
        {
            "bufferView" : 8,
            "componentType" : 5123,
            "count" : 306,
            "type" : "SCALAR"
        },
        {
            "bufferView" : 9,
            "componentType" : 5126,
            "count" : 70,
            "max" : [
                0.4960334897041321,
                0.4999985098838806,
                0.17664113640785217
            ],
            "min" : [
                -0.6795912981033325,
                -0.5000015497207642,
                -0.40233391523361206
            ],
            "type" : "VEC3"
        },
        {
            "bufferView" : 10,
            "componentType" : 5126,
            "count" : 70,
            "type" : "VEC3"
        },
        {
            "bufferView" : 11,
            "componentType" : 5126,
            "count" : 70,
            "type" : "VEC2"
        },
        {
            "bufferView" : 12,
            "componentType" : 5123,
            "count" : 108,
            "type" : "SCALAR"
        },
        {
            "bufferView" : 13,
            "componentType" : 5126,
            "count" : 30,
            "max" : [
                0.19021134078502655,
                0.5700000524520874,
                0.1618034392595291
            ],
            "min" : [
                -0.19021132588386536,
                -0.5700000524520874,
                -0.20000003278255463
            ],
            "type" : "VEC3"
        },
        {
            "bufferView" : 14,
            "componentType" : 5126,
            "count" : 30,
            "type" : "VEC3"
        },
        {
            "bufferView" : 15,
            "componentType" : 5126,
            "count" : 30,
            "type" : "VEC2"
        },
        {
            "bufferView" : 16,
            "componentType" : 5123,
            "count" : 48,
            "type" : "SCALAR"
        },
        {
            "bufferView" : 17,
            "componentType" : 5126,
            "count" : 34,
            "max" : [
                0.41958504915237427,
                0.4342051148414612,
                1.1608983278274536
            ],
            "min" : [
                -0.41958510875701904,
                -0.43421828746795654,
                -0.7465003728866577
            ],
            "type" : "VEC3"
        },
        {
            "bufferView" : 18,
            "componentType" : 5126,
            "count" : 34,
            "type" : "VEC3"
        },
        {
            "bufferView" : 19,
            "componentType" : 5126,
            "count" : 34,
            "type" : "VEC2"
        },
        {
            "bufferView" : 20,
            "componentType" : 5123,
            "count" : 54,
            "type" : "SCALAR"
        }
    ],
    "bufferViews" : [
        {
            "buffer" : 0,
            "byteLength" : 2280,
            "byteOffset" : 0
        },
        {
            "buffer" : 0,
            "byteLength" : 2280,
            "byteOffset" : 2280
        },
        {
            "buffer" : 0,
            "byteLength" : 1520,
            "byteOffset" : 4560
        },
        {
            "buffer" : 0,
            "byteLength" : 600,
            "byteOffset" : 6080
        },
        {
            "buffer" : 0,
            "byteLength" : 14970,
            "byteOffset" : 6680
        },
        {
            "buffer" : 0,
            "byteLength" : 2280,
            "byteOffset" : 21652
        },
        {
            "buffer" : 0,
            "byteLength" : 2280,
            "byteOffset" : 23932
        },
        {
            "buffer" : 0,
            "byteLength" : 1520,
            "byteOffset" : 26212
        },
        {
            "buffer" : 0,
            "byteLength" : 612,
            "byteOffset" : 27732
        },
        {
            "buffer" : 0,
            "byteLength" : 840,
            "byteOffset" : 28344
        },
        {
            "buffer" : 0,
            "byteLength" : 840,
            "byteOffset" : 29184
        },
        {
            "buffer" : 0,
            "byteLength" : 560,
            "byteOffset" : 30024
        },
        {
            "buffer" : 0,
            "byteLength" : 216,
            "byteOffset" : 30584
        },
        {
            "buffer" : 0,
            "byteLength" : 360,
            "byteOffset" : 30800
        },
        {
            "buffer" : 0,
            "byteLength" : 360,
            "byteOffset" : 31160
        },
        {
            "buffer" : 0,
            "byteLength" : 240,
            "byteOffset" : 31520
        },
        {
            "buffer" : 0,
            "byteLength" : 96,
            "byteOffset" : 31760
        },
        {
            "buffer" : 0,
            "byteLength" : 408,
            "byteOffset" : 31856
        },
        {
            "buffer" : 0,
            "byteLength" : 408,
            "byteOffset" : 32264
        },
        {
            "buffer" : 0,
            "byteLength" : 272,
            "byteOffset" : 32672
        },
        {
            "buffer" : 0,
            "byteLength" : 108,
            "byteOffset" : 32944
        }
    ],
    "samplers" : [
        {
            "magFilter" : 9729,
            "minFilter" : 9987
        }
    ],
    "buffers" : [
        {
            "byteLength" : 33052,
            "uri" : "data:application/octet-stream;base64,"
        }
    ]
}
